# xmcd CD database file
#
# Track frame offsets:
#	150
#	9190
#	20165
#	33222
#	44650
#	56525
#	70092
#	81147
#	91680
#	102500
#	111680
#	123135
#	133702
#	142415
#	152935
#	164490
#	175675
#	185942
#	197717
#	206835
#	216857
#	228380
#	239440
#	252325
#	263530
#
# Disc length: 3668 seconds
#
# Revision: 2
# Processed by: cddbd v1.5.1PL0 Copyright (c) Steve Scherf et al.
# Submitted via: CDex 1.51
#
DISCID=720e5219
DTITLE=Patsy Cline - Collection
DYEAR=1993
DGENRE=Country
TTITLE0=Ain't No Wheels On This Ship
TTITLE1=I'Can't Forget
TTITLE2=Fingerprints
TTITLE3=The Heart You Break May Be Your Own
TTITLE4=Walking After Midnight
TTITLE5=Life's Railway To Heaven
TTITLE6=Angel
TTITLE7=Honky Tonk Merry Go Round
TTITLE8=I Cried All The Way To The Altar
TTITLE9=Try Again
TTITLE10=I've Loved And Lost Again
TTITLE11=I Can See An Angel
TTITLE12=Come On In
TTITLE13=I Don't Wanna
TTITLE14=Let The Teardrops Fall
TTITLE15=Hungry For Love
TTITLE16=Too Many Secrets
TTITLE17=If I Could Only Stay Asleep
TTITLE18=I Love You Honey
TTITLE19=Pick Me Up On Your Way Down
TTITLE20=In Care Of The Blues
TTITLE21=Stop The World And Let Me Off
TTITLE22=Yes I Understand
TTITLE23=Hidin' Out
TTITLE24=Today, Tomorrow And Forever
EXTD=YEAR: 1993
EXTT0=
EXTT1=
EXTT2=
EXTT3=
EXTT4=
EXTT5=
EXTT6=
EXTT7=
EXTT8=
EXTT9=
EXTT10=
EXTT11=
EXTT12=
EXTT13=
EXTT14=
EXTT15=
EXTT16=
EXTT17=
EXTT18=
EXTT19=
EXTT20=
EXTT21=
EXTT22=
EXTT23=
EXTT24=
PLAYORDER=
